<?xml version="1.0" encoding="utf-16"?>
<svg width="108" height="50" viewBox="0 0 108 50" fill="none" xmlns="http://www.w3.org/2000/svg">
  <path d="M101.158 20.4683C98.9162 23.1231 95.5106 24.7514 91.8221 24.9389H91.6045C91.463 24.9389 91.3107 24.9488 91.1584 24.9488C83.9446 24.9488 77.8733 21.021 76.3173 15.7904H74.707C76.2738 21.7809 83.0524 26.3009 91.1584 26.3009C91.3107 26.3009 91.463 26.3009 91.6698 26.3009H91.8874C100.896 25.9949 107.947 20.2314 107.947 13.1554C107.947 12.9383 107.947 12.7211 107.925 12.5139H103.878C103.878 15.1588 102.92 18.3958 101.136 20.4782" fill="white" />
  <path d="M79.6133 8.17153C79.8635 7.66821 80.1573 7.18463 80.4837 6.72078C80.5925 6.56288 80.7013 6.41484 80.821 6.26681C83.0406 3.35546 86.6203 1.53956 90.5155 1.35205C90.7332 1.35205 90.9617 1.34218 91.1793 1.34218C98.393 1.34218 104.464 5.27004 106.02 10.5203H107.631C106.064 4.52 99.2852 0 91.1793 0C90.9399 0 90.6896 0 90.4503 0.019738C81.4412 0.315808 74.3906 6.08917 74.3906 13.1652C74.3906 13.3824 74.3906 13.5995 74.4124 13.8166H78.4491C78.5035 12.0994 78.8516 9.7407 79.6242 8.19126" fill="white" />
  <path d="M69.386 0.463852H65.5996V25.837H69.386V0.463852Z" fill="white" />
  <path d="M23.9597 25.837H28.1705C28.1705 25.837 16.6154 3.95748 14.7766 0.463852H13.3077C11.4798 3.95748 0.0334798 25.837 0.0117188 25.837H1.70908C1.76348 25.837 5.16908 19.3728 5.16908 19.3728H18.0516L17.3444 18.0307H5.87632L12.8398 4.6483C12.8398 4.6483 23.9706 25.8272 23.9706 25.8469" fill="white" />
  <path d="M44.8173 0.473717C44.5779 0.463848 44.3277 0.453979 44.0774 0.453979H32.3047V1.79616H44.2297C44.3929 1.79616 44.567 1.79616 44.7302 1.80603C51.4435 2.05276 56.7532 7.04647 56.8076 13.1356C56.7532 19.2248 51.4435 24.2086 44.7302 24.4652C44.5126 24.4652 44.295 24.4751 44.0774 24.4751H36.1999V3.79957H32.3047V25.837H44.0774C44.3168 25.837 44.567 25.837 44.8173 25.8173H44.8282C53.8263 25.5212 60.8769 19.965 60.8769 13.1455C60.8769 6.32603 53.8155 0.759918 44.8173 0.473717Z" fill="white" />
  <path d="M2.03549 44.4105L0.0117188 48.9798H0.66455L1.24122 47.6376H3.43908L4.01575 48.9798H4.66858L2.65568 44.4105H2.02461H2.03549ZM1.44795 47.154L2.20958 45.3875C2.23134 45.3381 2.2531 45.2789 2.28575 45.2099C2.30751 45.1408 2.32927 45.0816 2.35103 45.0322C2.36191 45.0816 2.38367 45.1408 2.41631 45.2099C2.43807 45.2789 2.47072 45.3381 2.49248 45.3875L3.24323 47.154H1.44795Z" fill="white" />
  <path d="M8.33448 46.7494C8.18216 46.6606 8.00807 46.5816 7.8231 46.5224C7.95367 46.4731 8.08423 46.404 8.2148 46.3152C8.34536 46.2264 8.44329 46.1079 8.53033 45.9698C8.6065 45.8316 8.65002 45.6737 8.65002 45.4961C8.65002 45.2789 8.58474 45.0914 8.46505 44.9335C8.34536 44.7657 8.1604 44.6375 7.92102 44.5486C7.68165 44.4598 7.39876 44.4105 7.07234 44.4105H5.22266V48.9798H7.09411C7.40964 48.9798 7.70341 48.9305 7.96455 48.8219C8.22568 48.7133 8.44329 48.5653 8.6065 48.3679C8.7697 48.1705 8.84587 47.9337 8.84587 47.6672C8.84587 47.4501 8.80235 47.2626 8.70442 47.1146C8.6065 46.9665 8.48681 46.8481 8.33448 46.7494ZM5.84285 44.894H7.0397C7.23555 44.894 7.40964 44.9138 7.56197 44.9631C7.71429 45.0125 7.83398 45.0816 7.92102 45.1901C8.00807 45.2888 8.05159 45.427 8.05159 45.5947C8.05159 45.7625 8.00807 45.8908 7.92102 45.9994C7.83398 46.1079 7.71429 46.177 7.56197 46.2264C7.40964 46.2757 7.23555 46.2954 7.0397 46.2954H5.84285V44.8842V44.894ZM8.07335 48.1212C7.96455 48.2495 7.8231 48.3383 7.64901 48.3975C7.46404 48.4567 7.25731 48.4864 7.02882 48.4864H5.85373V46.7988H7.02882C7.26819 46.7988 7.47492 46.8284 7.64901 46.8876C7.83398 46.9468 7.97543 47.0356 8.07335 47.1639C8.18216 47.2922 8.23656 47.4501 8.23656 47.6475C8.23656 47.8449 8.18216 48.0028 8.07335 48.1311V48.1212Z" fill="white" />
  <path d="M12.8189 47.3416C12.8189 47.5981 12.7644 47.8153 12.6556 47.9929C12.5468 48.1804 12.3945 48.3186 12.2095 48.4173C12.0137 48.516 11.7961 48.5653 11.5349 48.5653C11.2738 48.5653 11.0671 48.516 10.8712 48.4173C10.6754 48.3186 10.5231 48.1804 10.4143 47.9929C10.3055 47.8054 10.251 47.5883 10.251 47.3416V44.4105H9.63086V47.3712C9.63086 47.7363 9.70702 48.0423 9.87023 48.289C10.0334 48.5456 10.251 48.7331 10.5339 48.8712C10.8168 48.9995 11.1541 49.0686 11.5349 49.0686C11.9158 49.0686 12.2422 48.9995 12.5251 48.8712C12.808 48.7429 13.0365 48.5456 13.1997 48.289C13.3629 48.0324 13.439 47.7264 13.439 47.3712V44.4105H12.8189V47.3416Z" fill="white" />
  <path d="M19.2584 44.6769C18.8667 44.4993 18.4314 44.4105 17.92 44.4105H16.5273V48.9798H17.92C18.4206 48.9798 18.8667 48.891 19.2584 48.7133C19.6392 48.5357 19.9438 48.2692 20.1614 47.9337C20.379 47.5981 20.4879 47.1837 20.4879 46.7001C20.4879 46.2165 20.379 45.802 20.1614 45.4664C19.9438 45.1309 19.6392 44.8644 19.2584 44.6868V44.6769ZM19.6174 47.687C19.4542 47.9436 19.2148 48.1409 18.9211 48.2791C18.6273 48.4074 18.29 48.4765 17.8983 48.4765H17.1475V44.9138H17.8983C18.2791 44.9138 18.6164 44.9829 18.9211 45.1112C19.2148 45.2395 19.4433 45.4368 19.6174 45.7033C19.7806 45.9599 19.8677 46.2954 19.8677 46.7001C19.8677 47.1047 19.7806 47.4402 19.6174 47.6968V47.687Z" fill="white" />
  <path d="M24.5362 46.3941H21.9902V44.4105H21.3809V48.9798H21.9902V46.8974H24.5362V48.9798H25.1564V44.4105H24.5362V46.3941Z" fill="white" />
  <path d="M27.7141 44.4105L25.7012 48.9798H26.354L26.9307 47.6376H29.1285L29.7052 48.9798H30.358L28.3451 44.4105H27.7141ZM27.1374 47.154L27.899 45.3875C27.9208 45.3381 27.9426 45.2789 27.9752 45.2099C27.997 45.1408 28.0187 45.0816 28.0405 45.0322C28.0514 45.0816 28.0731 45.1408 28.1058 45.2099C28.1275 45.2789 28.1602 45.3381 28.1819 45.3875L28.9327 47.154H27.1374Z" fill="white" />
  <path d="M34.0239 46.7494C33.8716 46.6606 33.6975 46.5816 33.5126 46.5224C33.6431 46.4731 33.7737 46.404 33.9043 46.3152C34.0348 46.2264 34.1327 46.1079 34.2198 45.9698C34.296 45.8316 34.3395 45.6737 34.3395 45.4961C34.3395 45.2789 34.2742 45.0914 34.1545 44.9335C34.0348 44.7657 33.8498 44.6375 33.6105 44.5486C33.3711 44.4598 33.0882 44.4105 32.7618 44.4105H30.9121V48.9798H32.7836C33.0991 48.9798 33.3929 48.9305 33.654 48.8219C33.9151 48.7133 34.1327 48.5653 34.296 48.3679C34.4592 48.1705 34.5353 47.9337 34.5353 47.6672C34.5353 47.4501 34.4918 47.2626 34.3939 47.1146C34.296 46.9665 34.1763 46.8481 34.0239 46.7494ZM31.5323 44.894H32.7292C32.925 44.894 33.0991 44.9138 33.2514 44.9631C33.4037 45.0125 33.5234 45.0816 33.6105 45.1901C33.6975 45.2888 33.741 45.427 33.741 45.5947C33.741 45.7625 33.6975 45.8908 33.6105 45.9994C33.5234 46.1079 33.4037 46.177 33.2514 46.2264C33.0991 46.2757 32.925 46.2954 32.7292 46.2954H31.5323V44.8842V44.894ZM33.7519 48.1212C33.6431 48.2495 33.5017 48.3383 33.3276 48.3975C33.1426 48.4567 32.9359 48.4864 32.7074 48.4864H31.5323V46.7988H32.7074C32.9468 46.7988 33.1535 46.8284 33.3276 46.8876C33.5126 46.9468 33.654 47.0356 33.7519 47.1639C33.8607 47.2922 33.9151 47.4501 33.9151 47.6475C33.9151 47.8449 33.8607 48.0028 33.7519 48.1311V48.1212Z" fill="white" />
  <path d="M36.0147 44.4105H35.3945V48.9798H36.0147V44.4105Z" fill="white" />
  <path d="M39.8116 44.4105H39.1914V48.9798H39.8116V44.4105Z" fill="white" />
  <path d="M44.2848 48.1607C44.2848 48.1607 44.2413 48.0817 44.2086 48.0225C44.176 47.9633 44.1216 47.8942 44.0672 47.8054L41.6517 44.4105H41.0098V48.9798H41.6082V45.2197C41.6082 45.2197 41.6517 45.2987 41.6844 45.3579C41.717 45.4171 41.7714 45.4961 41.8258 45.5849L44.2413 48.9897H44.8832V44.4203H44.2848V48.1705V48.1607Z" fill="white" />
  <path d="M47.8851 47.8449C47.8415 47.9534 47.8089 48.0521 47.7871 48.1311C47.7545 48.21 47.7327 48.289 47.7001 48.3778C47.6783 48.2988 47.6457 48.21 47.613 48.1311C47.5804 48.0521 47.5478 47.9534 47.5042 47.8449L46.1333 44.4105H45.4805L47.341 48.9798H48.0156L49.8871 44.4105H49.2342L47.8633 47.8449H47.8851Z" fill="white" />
  <path d="M51.0186 46.858H53.3471V46.3645H51.0186V44.9039H53.5538V44.4105H50.3984V48.9798H53.5755V48.4864H51.0186V46.858Z" fill="white" />
  <path d="M56.372 46.3843C55.9259 46.3053 55.5886 46.1968 55.3492 46.0685C55.1098 45.9303 54.9901 45.7527 54.9901 45.5158C54.9901 45.2987 55.099 45.1211 55.3057 45.0026C55.5124 44.8842 55.7735 44.8151 56.0673 44.8151C56.3937 44.8151 56.6766 44.8941 56.9051 45.0421C57.1336 45.1901 57.3077 45.4171 57.4165 45.7033L57.9061 45.4467C57.7756 45.1013 57.5471 44.825 57.2315 44.6276C56.9051 44.4302 56.5243 44.3315 56.0782 44.3315C55.7518 44.3315 55.458 44.3809 55.2078 44.4894C54.9575 44.5881 54.7617 44.7362 54.6202 44.9138C54.4788 45.0915 54.4026 45.2987 54.4026 45.5356C54.4026 45.7922 54.4679 45.9994 54.6093 46.177C54.7508 46.3547 54.9466 46.4929 55.186 46.6014C55.4362 46.71 55.7191 46.7889 56.0347 46.8481C56.459 46.9172 56.7963 47.0258 57.0248 47.1639C57.2642 47.3021 57.373 47.4995 57.373 47.766C57.373 47.914 57.3295 48.0522 57.2315 48.1805C57.1336 48.3087 56.9922 48.4074 56.8181 48.4864C56.6331 48.5653 56.4155 48.6048 56.1652 48.6048C55.7518 48.6048 55.4254 48.4963 55.186 48.289C54.9466 48.0818 54.7834 47.7857 54.7073 47.4205L54.1523 47.6771C54.2176 47.9337 54.3264 48.1805 54.5005 48.3877C54.6637 48.6048 54.8922 48.7726 55.1751 48.9009C55.458 49.0292 55.7844 49.0884 56.1652 49.0884C56.5461 49.0884 56.8616 49.0292 57.1336 48.9009C57.4056 48.7825 57.6232 48.6147 57.7756 48.4074C57.9279 48.2002 58.004 47.9633 58.004 47.7067C58.004 47.3416 57.8626 47.0554 57.5906 46.8481C57.3077 46.6409 56.9051 46.483 56.3829 46.3942L56.372 46.3843Z" fill="white" />
  <path d="M58.3203 44.9138H59.8762V48.9798H60.4964V44.9138H62.0523V44.4105H58.3203V44.9138Z" fill="white" />
  <path d="M65.2511 48.4469L63.4558 44.4105H62.7812V48.9798H63.3797V45.4862C63.3797 45.4862 63.4123 45.5849 63.4341 45.654C63.4558 45.723 63.4885 45.7823 63.5102 45.8513C63.532 45.9204 63.5646 45.9796 63.5864 46.0388C63.6082 46.0981 63.6191 46.1277 63.6299 46.1573L64.9356 48.9897H65.5667L66.8723 46.1474C66.8723 46.1474 66.8941 46.0882 66.9158 46.0388C66.9376 45.9895 66.9594 45.9303 66.992 45.8612C67.0138 45.7921 67.0464 45.723 67.0682 45.6638C67.0899 45.5947 67.1117 45.5454 67.1226 45.4961V48.9897H67.721V44.4203H67.0464L65.2402 48.4568L65.2511 48.4469Z" fill="white" />
  <path d="M69.5382 46.858H71.8666V46.3645H69.5382V44.9039H72.0733V44.4105H68.918V48.9798H72.0951V48.4864H69.5382V46.858Z" fill="white" />
  <path d="M76.3063 48.1607C76.3063 48.1607 76.2628 48.0817 76.2301 48.0225C76.1975 47.9633 76.1431 47.8942 76.0887 47.8054L73.6732 44.4105H73.0312V48.9798H73.6297V45.2197C73.6297 45.2197 73.6732 45.2987 73.7058 45.3579C73.7385 45.4171 73.7929 45.4961 73.8473 45.5849L76.2628 48.9897H76.9047V44.4203H76.3063V48.1705V48.1607Z" fill="white" />
  <path d="M77.623 44.9138H79.179V48.9798H79.7991V44.9138H81.3442V44.4105H77.623V44.9138Z" fill="white" />
  <path d="M88.0241 44.9731C87.8065 44.7659 87.5454 44.5981 87.2407 44.4895C86.936 44.381 86.6205 44.3217 86.2832 44.3217C85.9459 44.3217 85.6195 44.381 85.3149 44.4895C85.0102 44.5981 84.7599 44.7659 84.5315 44.9731C84.3138 45.1804 84.1398 45.4369 84.0092 45.7231C83.8895 46.0192 83.8242 46.335 83.8242 46.6903C83.8242 47.0456 83.8895 47.3614 84.0092 47.6575C84.1289 47.9535 84.303 48.2003 84.5315 48.4075C84.7491 48.6148 85.0102 48.7825 85.3149 48.8911C85.6195 48.9997 85.935 49.0589 86.2832 49.0589C86.6314 49.0589 86.9469 48.9997 87.2407 48.8911C87.5454 48.7825 87.7956 48.6148 88.0241 48.4075C88.2417 48.2003 88.4158 47.9437 88.5464 47.6575C88.6661 47.3614 88.7313 47.0456 88.7313 46.6903C88.7313 46.335 88.6661 46.0192 88.5464 45.7231C88.4267 45.4271 88.2526 45.1804 88.0241 44.9731ZM87.8718 47.6772C87.7086 47.9535 87.5018 48.1707 87.2189 48.3286C86.9469 48.4865 86.6314 48.5555 86.2832 48.5555C85.935 48.5555 85.6195 48.4766 85.3475 48.3286C85.0755 48.1707 84.8579 47.9535 84.6947 47.6772C84.5315 47.4009 84.4553 47.0653 84.4553 46.6903C84.4553 46.3153 84.5315 45.9797 84.6947 45.6935C84.8579 45.4172 85.0755 45.2001 85.3475 45.0422C85.6195 44.8843 85.935 44.8152 86.2832 44.8152C86.6314 44.8152 86.9469 44.8942 87.2189 45.0422C87.491 45.2001 87.7086 45.4172 87.8718 45.6935C88.035 45.9699 88.1111 46.3054 88.1111 46.6903C88.1111 47.0752 88.035 47.4009 87.8718 47.6772Z" fill="white" />
  <path d="M89.6133 48.9798H90.2335V46.9961H92.6489V46.4928H90.2335V44.9039H92.8666V44.4105H89.6133V48.9798Z" fill="white" />
  <path d="M93.7246 48.9798H94.3448V46.9961H96.7603V46.4928H94.3448V44.9039H96.9779V44.4105H93.7246V48.9798Z" fill="white" />
  <path d="M98.4698 44.4105H97.8496V48.9798H98.4698V44.4105Z" fill="white" />
  <path d="M100.516 45.348C100.69 45.1802 100.886 45.052 101.114 44.9533C101.343 44.8644 101.582 44.8151 101.832 44.8151C102.191 44.8151 102.507 44.894 102.768 45.0421C103.029 45.1901 103.269 45.4467 103.475 45.802L103.965 45.4862C103.845 45.2493 103.682 45.0421 103.475 44.8644C103.269 44.6868 103.029 44.5486 102.757 44.4499C102.485 44.3513 102.18 44.3019 101.843 44.3019C101.506 44.3019 101.19 44.3611 100.886 44.4796C100.581 44.598 100.32 44.7658 100.091 44.973C99.8629 45.1803 99.678 45.4368 99.5474 45.723C99.4168 46.0092 99.3516 46.3251 99.3516 46.6705C99.3516 47.0159 99.4168 47.3218 99.5365 47.6179C99.6562 47.914 99.8303 48.1607 100.048 48.3679C100.266 48.5752 100.527 48.743 100.82 48.8614C101.114 48.9798 101.441 49.039 101.8 49.039C102.159 49.039 102.474 48.9897 102.735 48.891C102.997 48.7923 103.225 48.664 103.421 48.4864C103.617 48.3087 103.791 48.1015 103.954 47.8547L103.486 47.5587C103.29 47.8942 103.062 48.1409 102.79 48.2989C102.518 48.4568 102.202 48.5357 101.821 48.5357C101.462 48.5357 101.147 48.4568 100.875 48.289C100.592 48.1212 100.374 47.9041 100.222 47.6179C100.059 47.3317 99.9826 47.0159 99.9826 46.6606C99.9826 46.3941 100.026 46.1375 100.124 45.9106C100.222 45.6836 100.353 45.4862 100.527 45.3184L100.516 45.348Z" fill="white" />
  <path d="M105.399 48.4864V46.858H107.728V46.3645H105.399V44.9039H107.935V44.4105H104.779V48.9798H107.956V48.4864H105.399Z" fill="white" />
  <path d="M1.1751 38.6865C1.1751 39.1207 1.08805 39.4365 0.913963 39.624C0.739875 39.8115 0.446101 39.9003 0.0326415 39.9003H0V40.4431H0.0326415C0.63107 40.4431 1.08805 40.2951 1.37094 39.999C1.65384 39.703 1.79528 39.2589 1.79528 38.6766V36.1896H1.16422V38.6766L1.1751 38.6865Z" fill="white" />
  <path d="M11.1746 34.4628L10.6849 33.9987L10.1953 34.4628L10.6958 34.9072L11.1746 34.4628Z" fill="white" />
  <path d="M32.653 36.1797V36.1501L32.0546 36.3179V36.3475C32.1416 36.5745 32.2069 36.8015 32.2396 37.0087C32.2831 37.2259 32.3048 37.4331 32.3048 37.6206C32.3048 37.9463 32.2504 38.1733 32.1416 38.3213C32.0328 38.4595 31.8696 38.5286 31.6411 38.5286C31.4562 38.5286 31.3038 38.4792 31.195 38.3805C31.0753 38.2818 31.0209 38.1338 31.0209 37.9265V36.6436H30.3899V37.9265C30.3899 38.1437 30.3355 38.3016 30.2376 38.3904C30.1396 38.4792 29.9655 38.5286 29.7262 38.5286C29.5412 38.5286 29.3889 38.4792 29.2692 38.3805C29.1495 38.2818 29.0951 38.1338 29.0951 37.9265V36.6436H28.4749V37.9265C28.4749 38.1437 28.4205 38.3016 28.3226 38.3904C28.2247 38.4792 28.0506 38.5286 27.8003 38.5286H27.3216C27.0604 38.5286 26.8646 38.4693 26.7449 38.3608C26.6252 38.2522 26.5599 38.0845 26.5599 37.8575V36.1896H25.9397V37.8575C25.9397 38.0845 25.8853 38.2522 25.7657 38.3608C25.646 38.4693 25.461 38.5187 25.2216 38.5187H11.7733C11.5122 38.5187 11.3163 38.4595 11.1966 38.3509C11.077 38.2424 11.0117 38.0746 11.0117 37.8476V36.1797H10.3915V37.8476C10.3915 38.0746 10.3371 38.2424 10.2174 38.3509C10.0977 38.4595 9.91275 38.5088 9.67338 38.5088H9.23816C9.12935 38.5088 9.03143 38.4891 8.95526 38.4595C8.8791 38.4299 8.81382 38.3805 8.75941 38.3016C8.70501 38.2226 8.63973 38.1141 8.59621 37.9858L8.31331 37.2949C8.17187 36.9397 7.97602 36.6633 7.74753 36.4758C7.51904 36.2784 7.23614 36.1797 6.92061 36.1797C6.62683 36.1797 6.35482 36.2784 6.11545 36.4857C5.87608 36.6831 5.64759 36.989 5.44086 37.3739L5.25589 37.7292C5.1362 37.966 5.0274 38.1437 4.92947 38.2522C4.83155 38.3608 4.7445 38.4299 4.65746 38.4693C4.57042 38.499 4.47249 38.5187 4.35281 38.5187H4.25488C4.00463 38.5187 3.83054 38.4595 3.73262 38.3312C3.63469 38.2029 3.58029 38.0351 3.58029 37.8279V34.275H2.94922V37.8772C2.94922 38.272 3.05802 38.5779 3.28651 38.7654C3.50412 38.9529 3.83054 39.0516 4.25488 39.0516H4.41809C4.57042 39.0516 4.70098 39.0319 4.79891 39.0023C4.92947 38.9628 5.06004 38.9036 5.16884 38.8246C5.27765 38.7457 5.38645 38.6272 5.48438 38.4891C5.49526 38.4693 5.51702 38.4397 5.53878 38.4101C5.68023 38.5779 5.82167 38.7161 5.98488 38.8148C6.30042 39.0121 6.65947 39.1108 7.05117 39.1108C7.29054 39.1108 7.51904 39.0615 7.72577 38.9628C7.92161 38.8641 8.08482 38.7358 8.22627 38.568C8.22627 38.568 8.24803 38.6174 8.25891 38.6273C8.35683 38.7555 8.4874 38.8641 8.63973 38.9431C8.80294 39.022 8.99879 39.0615 9.22728 39.0615H9.6625C10.076 39.0615 10.4133 38.9529 10.6526 38.7457C10.6853 38.7161 10.7288 38.6766 10.7614 38.6273C10.7614 38.6273 10.7614 38.6371 10.7614 38.647C10.8485 38.7852 10.979 38.8937 11.1422 38.9628C11.3055 39.0319 11.5122 39.0615 11.7624 39.0615H25.2108C25.6242 39.0615 25.9615 38.9529 26.2009 38.7457C26.2335 38.7161 26.277 38.6766 26.3097 38.6273C26.3097 38.6273 26.3097 38.6371 26.3097 38.647C26.3967 38.7852 26.5273 38.8937 26.6905 38.9628C26.8537 39.0319 27.0604 39.0615 27.3107 39.0615H27.7894C28.2029 39.0615 28.5293 38.9628 28.7469 38.7654C28.7687 38.7457 28.7904 38.7161 28.8122 38.6963C28.8992 38.795 28.9972 38.874 29.1169 38.9332C29.2909 39.0121 29.4868 39.0615 29.7262 39.0615C30.1396 39.0615 30.4552 38.9628 30.6837 38.7654C30.7054 38.7457 30.7272 38.7161 30.7489 38.6963C30.836 38.795 30.9339 38.874 31.0536 38.9332C31.2277 39.0121 31.4235 39.0615 31.652 39.0615C32.0655 39.0615 32.3919 38.9332 32.6095 38.6865C32.8271 38.4397 32.9359 38.0746 32.9359 37.6107C32.9359 37.3838 32.9142 37.1469 32.8598 36.91C32.8162 36.6831 32.7509 36.4265 32.653 36.16V36.1797ZM6.60507 36.8311C6.703 36.7719 6.80092 36.7423 6.90973 36.7423C7.07293 36.7423 7.22526 36.8015 7.35583 36.9199C7.49727 37.0383 7.61696 37.2357 7.71488 37.5022L7.91073 37.9956C7.82369 38.1733 7.72576 38.3016 7.60608 38.4003C7.44287 38.5187 7.2579 38.5878 7.05117 38.5878C6.77916 38.5878 6.52891 38.5286 6.32218 38.4003C6.14809 38.3016 5.98488 38.1535 5.84344 37.9463L6.00664 37.6404C6.11545 37.4331 6.22425 37.2555 6.3113 37.1272C6.40922 36.9989 6.50715 36.9002 6.60507 36.841V36.8311Z" fill="white" />
  <path d="M39.4087 38.5286H38.3859C38.1248 38.5286 37.9289 38.4693 37.8093 38.3608C37.6896 38.2522 37.6243 38.0845 37.6243 37.8575V34.2849H36.9932V37.7884C36.9932 37.9759 36.9606 38.1338 36.8953 38.2325C36.8409 38.3312 36.7212 38.4101 36.5689 38.4496C36.4166 38.4891 36.1881 38.5088 35.9161 38.5187L35.4155 35.3902V35.3606L34.828 35.4297H34.7954L35.2959 38.5088H33.6855V39.0516H35.8834C36.4818 39.0516 36.9279 38.9529 37.2 38.7555C37.2544 38.7161 37.3088 38.6667 37.3632 38.5976C37.3632 38.6075 37.3632 38.6174 37.374 38.6272C37.4611 38.7654 37.5916 38.874 37.7549 38.9431C37.9181 39.0121 38.1248 39.0417 38.375 39.0417H40.018V34.2652H39.3869V38.499L39.4087 38.5286Z" fill="white" />
  <path d="M49.5287 39.3773L49.0391 39.8316L49.5287 40.2858L50.0292 39.8316L49.5287 39.3773Z" fill="white" />
  <path d="M66.4916 35.6573L66.9921 35.203L66.4916 34.7487L66.002 35.203L66.4916 35.6573Z" fill="white" />
  <path d="M64 38.1824C64 38.1824 64.0108 38.1631 64.0216 38.1535C64.0216 38.1535 64.0108 38.1728 64 38.1824Z" fill="white" />
  <path d="M67.5127 36.4067C67.2733 36.2686 66.9904 36.1995 66.6857 36.1995C66.12 36.1995 65.5868 36.4067 65.0863 36.8311C64.9993 36.9002 64.9231 36.9791 64.8469 37.0581V34.3046H64.2268V37.8279C64.1506 37.9364 64.0853 38.0548 64.02 38.1733C64.0527 38.1141 64.0962 38.0647 64.1288 38.0055C64.0527 38.1239 63.9765 38.2522 63.9003 38.3805C63.933 38.3213 63.9656 38.2621 63.9983 38.2029C63.933 38.3213 63.8568 38.4299 63.7915 38.5483H50.5717C50.3106 38.5483 50.1147 38.4891 49.995 38.3805C49.8754 38.272 49.8101 38.1042 49.8101 37.8772V36.2093H49.1899V37.8772C49.1899 38.1042 49.1355 38.272 49.0158 38.3805C48.8961 38.4891 48.7111 38.5384 48.4718 38.5384H48.0365C47.9169 38.5384 47.8298 38.5286 47.7537 38.5187C47.6884 38.5088 47.6231 38.4891 47.5796 38.4595C47.5252 38.4299 47.4816 38.3904 47.4272 38.341L46.6982 37.591L46.2304 37.9463L46.9267 38.6569C46.9703 38.6963 47.0029 38.7457 47.0138 38.795C47.0247 38.8444 47.0355 38.9036 47.0355 38.9529C47.0355 39.1108 46.9485 39.2687 46.7744 39.4069C46.6003 39.5549 46.3609 39.6832 46.0563 39.772C45.7516 39.8707 45.4252 39.9201 45.0662 39.9201C44.5439 39.9201 44.1522 39.8115 43.8802 39.5845C43.6082 39.3674 43.4776 39.0417 43.4776 38.6371C43.4776 38.4496 43.5103 38.2424 43.5647 38.0154C43.6191 37.7884 43.7061 37.5515 43.8149 37.3147V37.2949H43.8258L43.2926 37.1074H43.2709V37.137C42.9989 37.6996 42.8574 38.2127 42.8574 38.6569C42.8574 39.0319 42.9445 39.3576 43.1186 39.624C43.2926 39.9003 43.5538 40.1076 43.8802 40.2556C44.2066 40.4037 44.6092 40.4727 45.0662 40.4727C45.4252 40.4727 45.7625 40.4333 46.0672 40.3543C46.3827 40.2754 46.6547 40.1668 46.8941 40.0188C47.1335 39.8806 47.3184 39.7128 47.449 39.5352C47.5578 39.3872 47.6231 39.2194 47.6448 39.0417C47.7754 39.0713 47.906 39.0812 48.0474 39.0812H48.4826C48.8961 39.0812 49.2334 38.9727 49.4728 38.7654C49.5163 38.7259 49.5489 38.6865 49.5816 38.647C49.5816 38.647 49.5816 38.6569 49.5816 38.6667C49.6686 38.8049 49.7992 38.9134 49.9624 38.9825C50.1256 39.0516 50.3323 39.0812 50.5826 39.0812H66.2288C66.9034 39.0812 67.4256 38.9727 67.7738 38.7555C68.122 38.5384 68.2961 38.2127 68.2961 37.7686C68.2961 37.4726 68.2308 37.2061 68.0893 36.9693C67.9479 36.7324 67.7629 36.5449 67.5235 36.4067H67.5127ZM67.5127 38.2029C67.4256 38.3114 67.2733 38.4003 67.0557 38.4496C66.849 38.4989 66.5552 38.5286 66.207 38.5286H64.4661C64.7817 37.9858 65.0972 37.5614 65.4236 37.2752C65.8262 36.9199 66.2396 36.7423 66.664 36.7423C66.8598 36.7423 67.023 36.7817 67.1645 36.8706C67.3059 36.9594 67.4256 37.0778 67.5018 37.2357C67.5888 37.3936 67.6324 37.5713 67.6324 37.7686C67.6324 37.9463 67.5888 38.0943 67.4909 38.2029H67.5127Z" fill="white" />
  <path d="M73.7696 38.5286H72.2354C72.2354 38.5286 72.2354 38.4989 72.2354 38.4891C72.2354 38.4891 72.2354 38.42 72.2354 38.3904C72.2354 37.9265 72.181 37.5318 72.0613 37.2061C71.9416 36.8804 71.7784 36.6238 71.5499 36.4561C71.3215 36.2883 71.0386 36.1995 70.7122 36.1995C70.4401 36.1995 70.1899 36.2587 69.9723 36.387C69.7547 36.5153 69.5915 36.6831 69.4609 36.9002C69.3412 37.1173 69.2759 37.3541 69.2759 37.6206C69.2759 37.9167 69.363 38.1831 69.5262 38.4003C69.6894 38.6174 69.9288 38.7852 70.2443 38.9036C70.5489 39.022 70.9189 39.0812 71.3432 39.0812H71.4955C71.4303 39.249 71.3432 39.397 71.2235 39.5155C70.9733 39.7819 70.6142 39.9102 70.1681 39.9102C70.0267 39.9102 69.8743 39.8905 69.722 39.8609C69.5697 39.8313 69.4174 39.7819 69.2542 39.7227H69.2324L69.0148 40.1865V40.2063H69.0039H69.0365C69.2215 40.2852 69.4174 40.3445 69.6132 40.3839C69.8091 40.4234 69.994 40.4431 70.179 40.4431C70.6033 40.4431 70.9624 40.3543 71.2779 40.1865C71.5826 40.0188 71.822 39.7721 71.9961 39.4661C72.0722 39.3378 72.1157 39.1898 72.1484 39.0714H74.3898V36.1896H73.7696V38.5286ZM71.6261 38.3904C71.6261 38.3904 71.6261 38.4595 71.6261 38.4891V38.5286H71.365C70.8971 38.5286 70.5272 38.4496 70.2878 38.2917C70.0484 38.1338 69.9288 37.9068 69.9288 37.6206C69.9288 37.364 70.0049 37.1469 70.1572 36.989C70.3096 36.8212 70.4945 36.7423 70.7339 36.7423C71.0277 36.7423 71.2453 36.8706 71.3976 37.1469C71.5499 37.4232 71.6261 37.8377 71.6261 38.3904Z" fill="white" />
  <path d="M73.683 39.3773L73.1934 39.8316L73.683 40.2858L74.1726 39.8316L73.683 39.3773Z" fill="white" />
  <path d="M75.7614 34.0979C75.6743 34.0485 75.6308 33.9893 75.6308 33.9201C75.6308 33.851 75.6526 33.8016 75.6961 33.772C75.7396 33.7325 75.794 33.7128 75.8593 33.7128C75.9246 33.7128 75.979 33.7226 76.0225 33.7424C76.066 33.7621 76.1096 33.8016 76.1531 33.8411L76.1748 33.8708L76.436 33.6733H76.4577V33.6535V33.6338C76.3924 33.5547 76.3054 33.4757 76.2075 33.4165C76.1095 33.3572 75.979 33.3276 75.8375 33.3276C75.6635 33.3276 75.5111 33.377 75.3914 33.4856C75.2717 33.5844 75.2065 33.7226 75.2065 33.8905C75.2065 33.9991 75.25 34.0979 75.337 34.1967C75.3479 34.2164 75.3697 34.2263 75.3806 34.2362L75.1738 34.2757L75.2826 34.6411L76.4904 34.4337H76.5121V34.0485L76.2075 34.0979C76.0116 34.1374 75.8593 34.1275 75.7723 34.0782L75.7614 34.0979Z" fill="white" />
  <path d="M76.1643 34.9659H75.5332V39.0714H76.1643V34.9659Z" fill="white" />
  <path d="M81.8431 39.3773L81.3535 39.8316L81.8431 40.2858L82.3436 39.8316L81.8431 39.3773Z" fill="white" />
  <path d="M87.2513 35.6474L87.741 35.203L87.2731 34.7586L87.2513 34.7389L86.7617 35.1931V35.203L87.2513 35.6474Z" fill="white" />
  <path d="M86.1947 35.6573L86.6843 35.203L86.1947 34.7389L85.7051 35.203L86.1947 35.6573Z" fill="white" />
  <path d="M107.793 36.9594C107.685 36.7225 107.521 36.535 107.315 36.4067C107.108 36.2686 106.858 36.1995 106.586 36.1995C106.248 36.1995 105.955 36.2883 105.715 36.4758C105.476 36.6535 105.258 36.9594 105.062 37.3739L104.91 37.6798C104.801 37.8969 104.703 38.0746 104.605 38.2029C104.508 38.3312 104.421 38.4101 104.323 38.4595C104.225 38.5088 104.105 38.5286 103.974 38.5286C103.876 38.5286 103.779 38.5088 103.702 38.4693C103.615 38.4299 103.517 38.3707 103.409 38.272C103.3 38.1733 103.158 38.045 102.995 37.8772L101.32 36.1304L103.202 34.7487L103.224 34.729L102.832 34.3145L100.786 35.8146H100.776V36.4166L102.462 38.1634C102.397 38.2818 102.321 38.3707 102.234 38.42C102.103 38.4891 101.929 38.5286 101.711 38.5286H87.8168C87.5557 38.5286 87.3599 38.4693 87.2402 38.3608C87.1205 38.2522 87.0552 38.0845 87.0552 37.8575V36.1896H86.435V37.8575C86.435 38.0845 86.3806 38.2621 86.2609 38.3608C86.1412 38.4693 85.9563 38.5187 85.7169 38.5187H85.3687C85.1076 38.5187 84.9118 38.4595 84.7812 38.3509C84.6615 38.2424 84.5962 38.0746 84.5962 37.8476V36.1797H83.976V37.8476C83.976 38.0746 83.9216 38.2522 83.8019 38.3509C83.6823 38.4595 83.5082 38.5088 83.2688 38.5088H81.5061C81.0492 38.5088 80.6792 38.4792 80.4072 38.4101C80.1352 38.3509 79.9393 38.2522 79.8197 38.1141C79.7 37.9858 79.6347 37.7983 79.6347 37.5811C79.6347 37.4824 79.6456 37.3739 79.6673 37.2555C79.6891 37.1272 79.7217 37.0087 79.7435 36.8903V36.8607L79.1777 36.7225V36.7521C79.0798 37.0581 79.0254 37.3344 79.0254 37.5811C79.0254 38.0845 79.2321 38.4496 79.6456 38.6865C80.0482 38.9233 80.6792 39.0417 81.517 39.0417H83.2797C83.6931 39.0417 84.0195 38.9332 84.2589 38.7259C84.3024 38.6865 84.3351 38.647 84.3677 38.6075C84.3677 38.6075 84.3677 38.6174 84.3786 38.6273C84.4656 38.7654 84.5962 38.874 84.7594 38.9431C84.89 39.0023 85.0532 39.0319 85.2708 39.0417C85.2708 39.0417 85.2926 39.0417 85.3034 39.0417H85.7387C86.1521 39.0417 86.4894 38.9332 86.7288 38.7259C86.7614 38.6963 86.805 38.6569 86.8376 38.6075C86.8376 38.6075 86.8376 38.6174 86.8376 38.6273C86.9246 38.7654 87.0552 38.874 87.2184 38.9431C87.3816 39.0121 87.5884 39.0417 87.8386 39.0417H101.733C102.092 39.0417 102.397 38.9628 102.625 38.8148C102.723 38.7457 102.821 38.6569 102.897 38.5483C102.941 38.5878 102.984 38.6371 103.028 38.6667C103.169 38.795 103.322 38.8838 103.474 38.9529C103.626 39.022 103.8 39.0516 103.996 39.0516H104.061C104.388 39.0417 104.649 38.9431 104.856 38.7753C104.975 38.6766 105.084 38.5483 105.204 38.3805C105.585 38.8246 106.053 39.0516 106.607 39.0516C106.89 39.0516 107.13 38.9924 107.336 38.8937C107.543 38.7852 107.706 38.6273 107.826 38.4299C107.946 38.2325 108 38.0055 108 37.7489C108 37.443 107.946 37.1666 107.826 36.9397L107.793 36.9594ZM107.336 37.7686C107.336 38.0055 107.271 38.193 107.141 38.3312C107.01 38.4595 106.814 38.5286 106.575 38.5286C106.335 38.5286 106.14 38.4693 105.955 38.3608C105.802 38.2621 105.639 38.1042 105.476 37.8772L105.617 37.5811C105.77 37.2555 105.922 37.0285 106.074 36.91C106.216 36.7916 106.379 36.7324 106.575 36.7324C106.803 36.7324 106.988 36.8212 107.13 36.9989C107.271 37.1765 107.336 37.4331 107.336 37.7588V37.7686Z" fill="white" />
  <path d="M45.5892 40.759L45.0996 41.2231L45.5892 41.6675L46.0789 41.2231L45.5892 40.759Z" fill="white" />
  <path d="M44.5345 40.759L44.0449 41.2231L44.5345 41.6675L45.0242 41.2231L44.5345 40.759Z" fill="white" />
  <path d="M26.7552 35.6474L27.2558 35.203L26.7552 34.7389L26.2656 35.203L26.7552 35.6474Z" fill="white" />
  <path d="M25.7103 35.6573L26.1999 35.203L25.7103 34.7389L25.2207 35.203L25.7103 35.6573Z" fill="white" />
  <path d="M10.7168 35.203L11.2064 35.6474L11.7069 35.203L11.2064 34.7389L10.7168 35.203Z" fill="white" />
  <path d="M10.1517 35.6573L10.6414 35.203L10.1517 34.7389L9.66211 35.203L10.1517 35.6573Z" fill="white" />
</svg>